# xmcd
#
# Track frame offsets:
# 150
# 53335
# 72735
# 92720
# 135517
# 164580
# 180792
# 231945
# 251452
#
# Disc length: 3617 seconds
#
#
# Revision: 2
# Processed by: cddbd v1.5.1PL0 Copyright (c) Steve Scherf et al.
# Submitted via: FreeRIP 2.70 
#
DISCID=700e1f09
DTITLE=Various Artist - Guitar Magic
DYEAR=1985
DGENRE=Classical
TTITLE0=Concerto in A Major Op. 30
TTITLE1=Romanze in A Minor
TTITLE2=Spanish Dance No. 5
TTITLE3=Concerto in A Major
TTITLE4=Quintet in E Minor for Guitar and Strings
TTITLE5=Concerto in D Major
TTITLE6=Russian Memories for 2 Guitars
TTITLE7=Sevilla
TTITLE8=La Maya de Goya
EXTD=Allegretto Cameo Classics Series\nADD recording\nACD 8704
EXTT0=Guiliani
EXTT1=Paganini
EXTT2=Granados
EXTT3=Carulli
EXTT4=Boccherini
EXTT5=Vivaldi
EXTT6=Sor
EXTT7=Albeniz
EXTT8=Granados
PLAYORDER=
